<?xml version="1.0" standalone="no"?>
<!DOCTYPE svg PUBLIC "-//W3C//DTD SVG 20010904//EN"
 "http://www.w3.org/TR/2001/REC-SVG-20010904/DTD/svg10.dtd">
<svg version="1.0" xmlns="http://www.w3.org/2000/svg"
 width="100" height="100" viewBox="0 0 500.000000 500.000000"
 preserveAspectRatio="xMidYMid meet">

<g transform="translate(0.000000,500.000000) scale(0.100000,-0.100000)"
fill="#000000" stroke="none">
<path d="M3251 4919 c-13 -5 -49 -25 -80 -43 -31 -20 -122 -55 -206 -81 -177
-56 -328 -115 -408 -162 -64 -38 -77 -59 -159 -253 -61 -142 -110 -295 -154
-475 -20 -82 -40 -152 -44 -155 -3 -3 -14 -32 -22 -65 -17 -62 -96 -274 -107
-287 -4 -4 -22 -3 -41 2 -19 5 -46 11 -60 13 -82 15 -237 50 -245 57 -14 10
-99 30 -131 30 l-26 0 4 80 c3 54 1 86 -8 97 -10 15 -14 8 -24 -42 -7 -33 -18
-75 -26 -93 l-14 -34 -27 20 c-16 12 -42 34 -60 50 -96 90 -139 88 -57 -1 89
-99 90 -95 -26 -94 -67 1 -103 -2 -111 -10 -18 -18 -12 -20 71 -26 76 -5 130
-19 130 -35 0 -5 -22 -19 -50 -32 -60 -28 -105 -72 -96 -95 5 -15 10 -13 36 9
17 14 64 41 104 61 70 35 75 36 127 26 30 -6 77 -15 104 -21 28 -5 59 -14 70
-20 11 -5 81 -36 155 -68 l136 -58 -41 -104 c-22 -58 -55 -130 -73 -160 -44
-76 -66 -137 -92 -260 -40 -191 -52 -213 -176 -314 -32 -26 -116 -102 -185
-167 -363 -342 -550 -444 -844 -458 l-120 -6 39 -42 c92 -102 406 -295 689
-424 62 -28 114 -53 115 -54 2 -2 7 -37 10 -77 l7 -73 57 -9 c44 -7 93 -3 235
18 100 15 221 26 277 26 l98 0 -7 -75 -7 -75 100 0 100 0 15 -38 c8 -20 18
-55 22 -77 9 -54 28 -87 69 -123 20 -17 36 -41 36 -52 0 -30 57 -109 86 -120
36 -14 33 -62 -5 -89 -41 -30 -105 -55 -189 -76 -63 -15 -77 -22 -93 -49 -10
-17 -19 -39 -19 -48 0 -23 41 -33 81 -19 18 6 51 11 74 11 23 0 61 7 86 15 24
8 95 19 157 24 134 11 162 24 162 77 0 39 -21 87 -54 122 -17 19 -21 37 -22
88 -1 52 -7 78 -36 137 -35 72 -93 266 -86 287 2 6 74 39 160 74 l156 62 32
-67 c17 -37 46 -83 64 -103 18 -19 41 -55 50 -79 22 -59 62 -121 130 -200 46
-55 56 -73 56 -104 0 -70 71 -173 119 -173 21 0 41 -57 41 -116 0 -34 7 -45
57 -91 32 -30 68 -76 82 -106 35 -71 90 -100 175 -92 98 10 119 39 71 97 -14
16 -25 35 -25 41 0 7 -16 23 -35 36 -19 13 -65 55 -101 93 -55 59 -65 74 -59
95 4 16 0 35 -11 50 -9 14 -27 66 -40 115 -28 105 -49 149 -74 155 -19 5 -22
15 -50 176 -8 43 -22 81 -40 105 -15 21 -33 48 -39 61 -15 27 -62 213 -56 219
8 8 89 21 131 22 22 0 63 11 92 26 70 35 123 110 207 292 35 78 75 159 89 180
29 47 103 87 241 132 192 62 274 120 291 207 7 34 -16 126 -40 158 -14 19 -14
19 -82 -3 -125 -39 -337 -62 -578 -62 -138 0 -233 16 -429 74 -227 66 -449
221 -518 363 -29 59 -44 166 -33 228 10 54 9 53 185 175 99 68 281 241 318
300 26 44 27 105 1 147 -14 24 -44 44 -114 78 -84 41 -96 50 -107 82 -22 67 9
133 63 133 70 0 143 57 192 150 18 36 48 92 65 124 24 45 31 72 31 113 0 75
-21 105 -110 164 -41 27 -86 58 -98 69 -50 42 -169 17 -246 -50 -51 -46 -69
-84 -63 -136 3 -30 0 -47 -9 -55 -18 -15 -18 -56 1 -110 15 -41 14 -46 -11
-123 -15 -45 -38 -103 -52 -130 l-24 -50 -15 30 c-9 16 -26 40 -39 54 l-23 25
34 110 c18 61 50 166 70 235 20 69 50 152 65 185 28 57 32 61 92 84 35 13 133
64 220 112 86 49 189 103 229 120 70 30 77 31 164 24 l91 -7 53 45 c32 27 75
52 109 64 38 12 58 24 60 36 3 14 -1 17 -20 12 -13 -3 -40 1 -60 10 -43 17
-266 21 -307 4z"/>
</g>
</svg>
